<svg width="91" height="17" viewBox="0 0 91 17" fill="none" xmlns="http://www.w3.org/2000/svg">
<path d="M4.512 11.448C4.512 11.9067 4.59733 12.2267 4.768 12.408C4.93867 12.5787 5.23733 12.664 5.664 12.664V13C4.512 12.9573 3.776 12.936 3.456 12.936C3.104 12.936 2.336 12.952 1.152 12.984L0.704 13V12.664C1.20533 12.664 1.57867 12.568 1.824 12.376C2.08 12.184 2.208 11.8427 2.208 11.352V7.448C2.208 6.936 2.16 6.56267 2.064 6.328C1.97867 6.08267 1.82933 5.92267 1.616 5.848C1.40267 5.76267 1.07733 5.72 0.64 5.72V5.368C1.568 5.34667 2.33067 5.27733 2.928 5.16C3.52533 5.032 4.05333 4.82933 4.512 4.552V11.448ZM11.485 5.96C12.061 5.96 12.5837 6.09867 13.053 6.376C13.533 6.65333 13.9117 7.05867 14.189 7.592C14.477 8.11467 14.621 8.72267 14.621 9.416C14.621 10.2053 14.4397 10.888 14.077 11.464C13.725 12.04 13.245 12.4773 12.637 12.776C12.029 13.0747 11.3623 13.224 10.637 13.224C9.46367 13.224 8.541 12.824 7.869 12.024C7.20767 11.224 6.877 10.104 6.877 8.664C6.877 7.18133 7.20767 5.92267 7.869 4.888C8.541 3.85333 9.36233 3.05867 10.333 2.504C11.3143 1.94933 12.2903 1.592 13.261 1.432L13.325 1.752C12.6423 1.96533 12.0397 2.24267 11.517 2.584C11.005 2.92533 10.5517 3.45333 10.157 4.168C9.773 4.88267 9.517 5.832 9.389 7.016C9.613 6.65333 9.90633 6.38667 10.269 6.216C10.6423 6.04533 11.0477 5.96 11.485 5.96ZM10.797 12.904C11.2023 12.904 11.5383 12.632 11.805 12.088C12.0717 11.5333 12.205 10.6907 12.205 9.56C12.205 8.472 12.077 7.67733 11.821 7.176C11.5757 6.67467 11.2503 6.424 10.845 6.424C10.5677 6.424 10.285 6.52533 9.997 6.728C9.709 6.93067 9.485 7.23467 9.325 7.64C9.30367 8.10933 9.293 8.48267 9.293 8.76C9.293 10.2213 9.437 11.2773 9.725 11.928C10.0237 12.5787 10.381 12.904 10.797 12.904ZM21.2538 4.12C21.2538 5.368 21.2751 6.264 21.3178 6.808C21.0938 6.75467 20.3524 6.728 19.0938 6.728H16.6298L16.3738 9.464C16.9924 9.03733 17.7978 8.824 18.7898 8.824C19.8138 8.824 20.5871 9.05867 21.1098 9.528C21.6431 9.99733 21.9098 10.6053 21.9098 11.352C21.9098 12.1413 21.6004 12.84 20.9818 13.448C20.3631 14.0667 19.5631 14.5413 18.5818 14.872C17.6111 15.2027 16.6084 15.368 15.5738 15.368V15.08C16.2458 15.0693 16.8858 14.92 17.4938 14.632C18.1018 14.3547 18.5924 13.9387 18.9658 13.384C19.3391 12.84 19.5258 12.1947 19.5258 11.448C19.5258 10.776 19.3658 10.264 19.0458 9.912C18.7364 9.54933 18.2831 9.368 17.6858 9.368C17.3978 9.368 17.1418 9.40533 16.9178 9.48C16.6938 9.55467 16.4698 9.672 16.2458 9.832L16.0218 9.688L16.5338 4.68C16.7471 4.72267 17.0351 4.744 17.3978 4.744H20.0378C20.3471 4.744 20.5604 4.70133 20.6778 4.616C20.8058 4.52 20.8858 4.35467 20.9178 4.12H21.2538ZM31.1699 4.504C32.0125 4.504 32.7645 4.68 33.4259 5.032C34.0872 5.384 34.5992 5.88 34.9619 6.52C35.3352 7.16 35.5219 7.896 35.5219 8.728C35.5219 9.58133 35.3299 10.3493 34.9459 11.032C34.5725 11.7147 34.0392 12.2533 33.3459 12.648C32.6632 13.032 31.8792 13.224 30.9939 13.224C30.1619 13.224 29.4152 13.048 28.7539 12.696C28.0925 12.344 27.5752 11.848 27.2019 11.208C26.8285 10.568 26.6419 9.82667 26.6419 8.984C26.6419 8.14133 26.8285 7.37867 27.2019 6.696C27.5859 6.01333 28.1192 5.48 28.8019 5.096C29.4845 4.70133 30.2739 4.504 31.1699 4.504ZM31.0259 4.792C30.6419 4.792 30.3005 4.95733 30.0019 5.288C29.7032 5.61867 29.4685 6.09867 29.2979 6.728C29.1379 7.34667 29.0579 8.08267 29.0579 8.936C29.0579 10.2907 29.2499 11.2987 29.6339 11.96C30.0285 12.6107 30.5299 12.936 31.1379 12.936C31.5219 12.936 31.8579 12.7707 32.1459 12.44C32.4445 12.0987 32.6792 11.6187 32.8499 11C33.0205 10.3707 33.1059 9.62933 33.1059 8.776C33.1059 7.42133 32.9085 6.41867 32.5139 5.768C32.1299 5.11733 31.6339 4.792 31.0259 4.792ZM41.4824 4.504C42.325 4.504 43.077 4.68 43.7384 5.032C44.3997 5.384 44.9117 5.88 45.2744 6.52C45.6477 7.16 45.8344 7.896 45.8344 8.728C45.8344 9.58133 45.6424 10.3493 45.2584 11.032C44.885 11.7147 44.3517 12.2533 43.6584 12.648C42.9757 13.032 42.1917 13.224 41.3064 13.224C40.4744 13.224 39.7277 13.048 39.0664 12.696C38.405 12.344 37.8877 11.848 37.5144 11.208C37.141 10.568 36.9544 9.82667 36.9544 8.984C36.9544 8.14133 37.141 7.37867 37.5144 6.696C37.8984 6.01333 38.4317 5.48 39.1144 5.096C39.797 4.70133 40.5864 4.504 41.4824 4.504ZM41.3384 4.792C40.9544 4.792 40.613 4.95733 40.3144 5.288C40.0157 5.61867 39.781 6.09867 39.6104 6.728C39.4504 7.34667 39.3704 8.08267 39.3704 8.936C39.3704 10.2907 39.5624 11.2987 39.9464 11.96C40.341 12.6107 40.8424 12.936 41.4504 12.936C41.8344 12.936 42.1704 12.7707 42.4584 12.44C42.757 12.0987 42.9917 11.6187 43.1624 11C43.333 10.3707 43.4184 9.62933 43.4184 8.776C43.4184 7.42133 43.221 6.41867 42.8264 5.768C42.4424 5.11733 41.9464 4.792 41.3384 4.792ZM51.7949 4.504C52.6375 4.504 53.3895 4.68 54.0509 5.032C54.7122 5.384 55.2242 5.88 55.5869 6.52C55.9602 7.16 56.1469 7.896 56.1469 8.728C56.1469 9.58133 55.9549 10.3493 55.5709 11.032C55.1975 11.7147 54.6642 12.2533 53.9709 12.648C53.2882 13.032 52.5042 13.224 51.6189 13.224C50.7869 13.224 50.0402 13.048 49.3789 12.696C48.7175 12.344 48.2002 11.848 47.8269 11.208C47.4535 10.568 47.2669 9.82667 47.2669 8.984C47.2669 8.14133 47.4535 7.37867 47.8269 6.696C48.2109 6.01333 48.7442 5.48 49.4269 5.096C50.1095 4.70133 50.8989 4.504 51.7949 4.504ZM51.6509 4.792C51.2669 4.792 50.9255 4.95733 50.6269 5.288C50.3282 5.61867 50.0935 6.09867 49.9229 6.728C49.7629 7.34667 49.6829 8.08267 49.6829 8.936C49.6829 10.2907 49.8749 11.2987 50.2589 11.96C50.6535 12.6107 51.1549 12.936 51.7629 12.936C52.1469 12.936 52.4829 12.7707 52.7709 12.44C53.0695 12.0987 53.3042 11.6187 53.4749 11C53.6455 10.3707 53.7309 9.62933 53.7309 8.776C53.7309 7.42133 53.5335 6.41867 53.1389 5.768C52.7549 5.11733 52.2589 4.792 51.6509 4.792ZM66.7218 4.504C67.2764 4.504 67.7671 4.65333 68.1938 4.952C68.6311 5.25067 68.9724 5.69867 69.2178 6.296C69.4631 6.89333 69.5858 7.624 69.5858 8.488C69.5858 10.0133 69.2498 11.1867 68.5778 12.008C67.9164 12.8187 67.0151 13.224 65.8738 13.224C65.5538 13.224 65.2498 13.1813 64.9618 13.096C64.6844 13.0107 64.4444 12.8827 64.2418 12.712V14.312C64.2418 14.7813 64.3591 15.1067 64.5938 15.288C64.8284 15.4693 65.1911 15.56 65.6818 15.56V15.896L65.2498 15.88C64.0658 15.848 63.3138 15.832 62.9938 15.832C62.6738 15.832 62.0018 15.8533 60.9778 15.896V15.56C61.3298 15.56 61.5751 15.48 61.7138 15.32C61.8631 15.1707 61.9378 14.888 61.9378 14.472V6.472C61.9378 5.98133 61.8578 5.624 61.6978 5.4C61.5484 5.176 61.2871 5.064 60.9138 5.064V4.728C61.2551 4.76 61.5858 4.776 61.9058 4.776C62.8338 4.776 63.6124 4.70133 64.2418 4.552V6.024C64.4658 5.53333 64.7911 5.16 65.2178 4.904C65.6444 4.63733 66.1458 4.504 66.7218 4.504ZM65.2498 12.792C65.9324 12.792 66.4231 12.456 66.7218 11.784C67.0204 11.1013 67.1698 10.1093 67.1698 8.808C67.1698 7.50667 67.0471 6.57867 66.8018 6.024C66.5671 5.46933 66.2258 5.192 65.7778 5.192C65.4151 5.192 65.0898 5.31467 64.8018 5.56C64.5244 5.80533 64.3378 6.14667 64.2418 6.584V12.36C64.4978 12.648 64.8338 12.792 65.2498 12.792ZM76.9291 4.776C77.4625 4.776 77.8731 4.76 78.1611 4.728V5.048C77.9371 5.112 77.7345 5.25067 77.5531 5.464C77.3825 5.66667 77.2171 5.98667 77.0571 6.424L74.1931 14.472C73.9798 15.0267 73.7451 15.4053 73.4891 15.608C73.1798 15.8747 72.7158 16.008 72.0971 16.008C71.6491 16.008 71.2438 15.896 70.8811 15.672C70.5291 15.4587 70.3531 15.144 70.3531 14.728C70.3531 14.3973 70.4705 14.1307 70.7051 13.928C70.9398 13.736 71.2491 13.64 71.6331 13.64C71.9958 13.64 72.2838 13.7253 72.4971 13.896C72.7211 14.0773 72.8331 14.328 72.8331 14.648C72.8331 14.872 72.7638 15.0747 72.6251 15.256C72.4865 15.448 72.2891 15.592 72.0331 15.688C72.1078 15.6987 72.2305 15.704 72.4011 15.704C73.0625 15.704 73.5478 15.2827 73.8571 14.44L74.1131 13.672L70.7211 5.96C70.5505 5.59733 70.3851 5.35733 70.2251 5.24C70.0651 5.12267 69.8998 5.064 69.7291 5.064V4.728C70.4331 4.792 71.1638 4.824 71.9211 4.824C72.5505 4.824 73.2918 4.792 74.1451 4.728V5.064C73.8038 5.064 73.5478 5.09067 73.3771 5.144C73.2171 5.18667 73.1371 5.30933 73.1371 5.512C73.1371 5.62933 73.1745 5.77867 73.2491 5.96L75.2011 10.68L76.3051 7.608C76.4758 7.10667 76.5611 6.68 76.5611 6.328C76.5611 5.54933 76.1665 5.12267 75.3771 5.048V4.728C75.8785 4.76 76.3958 4.776 76.9291 4.776ZM83.1159 4.92C84.2892 4.92 85.2012 5.26133 85.8519 5.944C86.5025 6.62667 86.8279 7.62933 86.8279 8.952C86.8279 10.36 86.4652 11.4267 85.7399 12.152C85.0252 12.8667 84.0385 13.224 82.7799 13.224C81.4145 13.224 80.4439 12.8027 79.8679 11.96C79.2919 11.1173 79.0039 9.832 79.0039 8.104C79.0039 7.02667 79.1105 5.944 79.3239 4.856C79.5479 3.75733 79.9585 2.92533 80.5559 2.36C81.0145 1.912 81.6759 1.64 82.5399 1.544C82.8599 1.50133 83.1959 1.47467 83.5479 1.464C83.9105 1.44267 84.1559 1.42667 84.2839 1.416C84.5292 1.416 84.6999 1.41067 84.7959 1.4C85.3292 1.37867 85.7399 1.29867 86.0279 1.16C86.3159 1.01067 86.5559 0.770666 86.7479 0.44L86.9879 0.487999C86.7745 1.576 86.4172 2.31733 85.9159 2.712C85.5105 3.04267 84.8919 3.23467 84.0599 3.288C83.5479 3.30933 82.9985 3.352 82.4119 3.416C81.6652 3.50133 81.0999 3.66133 80.7159 3.896C80.3425 4.13067 80.0545 4.50933 79.8519 5.032C79.6492 5.544 79.4839 6.328 79.3559 7.384C79.6119 6.552 80.0705 5.93333 80.7319 5.528C81.4039 5.12267 82.1985 4.92 83.1159 4.92ZM82.9399 12.904C83.4412 12.904 83.8092 12.5413 84.0439 11.816C84.2892 11.08 84.4119 10.104 84.4119 8.888C84.4119 7.61867 84.2785 6.696 84.0119 6.12C83.7559 5.53333 83.4039 5.24 82.9559 5.24C82.4972 5.24 82.1239 5.53867 81.8359 6.136C81.5479 6.72267 81.4039 7.66133 81.4039 8.952C81.4039 10.264 81.5479 11.2507 81.8359 11.912C82.1345 12.5733 82.5025 12.904 82.9399 12.904ZM89.5819 10.76C89.9979 10.76 90.3285 10.872 90.5739 11.096C90.8192 11.3093 90.9419 11.608 90.9419 11.992C90.9419 12.376 90.8192 12.68 90.5739 12.904C90.3285 13.1173 89.9979 13.224 89.5819 13.224C89.1659 13.224 88.8352 13.1173 88.5899 12.904C88.3445 12.68 88.2219 12.376 88.2219 11.992C88.2219 11.608 88.3445 11.3093 88.5899 11.096C88.8352 10.872 89.1659 10.76 89.5819 10.76Z" fill="#D0D0D0"/>
</svg>
