<svg width="22" height="24" viewBox="0 0 22 24" fill="none" xmlns="http://www.w3.org/2000/svg">
<path d="M19.25 19.0179L14.5255 13.9269C15.3989 12.4965 15.7487 10.7677 15.5072 9.07531C15.2657 7.38291 14.4501 5.84727 13.2182 4.7657C11.9863 3.68413 10.4259 3.13357 8.83892 3.22062C7.25197 3.30766 5.75144 4.02612 4.62785 5.23689C3.50425 6.44766 2.83752 8.06461 2.75675 9.77468C2.67597 11.4848 3.18689 13.1663 4.19058 14.4938C5.19428 15.8212 6.61936 16.7001 8.1899 16.9604C9.76044 17.2206 11.3647 16.8436 12.6922 15.9025L17.4167 20.9935L19.25 19.0179ZM4.58332 10.1278C4.58332 7.40452 6.63941 5.18891 9.16666 5.18891C11.6939 5.18891 13.75 7.40452 13.75 10.1278C13.75 12.8512 11.6939 15.0668 9.16666 15.0668C6.63941 15.0668 4.58332 12.8512 4.58332 10.1278Z" fill="white"/>
</svg>
