<svg width="139" height="15" viewBox="0 0 139 15" fill="none" xmlns="http://www.w3.org/2000/svg">
<path d="M5.346 1.616C4.914 1.64 4.596 1.688 4.392 1.76C4.2 1.832 4.068 1.97 3.996 2.174C3.924 2.378 3.888 2.708 3.888 3.164V12.092C3.888 12.548 3.924 12.878 3.996 13.082C4.068 13.286 4.2 13.424 4.392 13.496C4.596 13.556 4.914 13.586 5.346 13.586H6.66C7.404 13.586 7.968 13.484 8.352 13.28C8.748 13.064 9.036 12.722 9.216 12.254C9.396 11.786 9.528 11.108 9.612 10.22H10.026C9.99 10.592 9.972 11.084 9.972 11.696C9.972 12.38 10.014 13.148 10.098 14C9.282 13.964 7.908 13.946 5.976 13.946C3.672 13.946 1.932 13.964 0.756 14V13.64C1.188 13.616 1.5 13.568 1.692 13.496C1.896 13.424 2.034 13.286 2.106 13.082C2.178 12.878 2.214 12.548 2.214 12.092V3.164C2.214 2.708 2.178 2.378 2.106 2.174C2.034 1.97 1.896 1.832 1.692 1.76C1.5 1.688 1.188 1.64 0.756 1.616V1.256C1.26 1.292 2.028 1.31 3.06 1.31C4.02 1.31 4.782 1.292 5.346 1.256V1.616ZM15.514 4.478C16.738 4.478 17.722 4.886 18.466 5.702C19.222 6.506 19.6 7.73 19.6 9.374C19.6 11.018 19.222 12.242 18.466 13.046C17.722 13.85 16.738 14.252 15.514 14.252C14.29 14.252 13.3 13.85 12.544 13.046C11.8 12.242 11.428 11.018 11.428 9.374C11.428 7.73 11.8 6.506 12.544 5.702C13.3 4.886 14.29 4.478 15.514 4.478ZM15.514 4.838C14.794 4.838 14.224 5.21 13.804 5.954C13.384 6.686 13.174 7.826 13.174 9.374C13.174 10.922 13.384 12.062 13.804 12.794C14.224 13.526 14.794 13.892 15.514 13.892C16.234 13.892 16.804 13.526 17.224 12.794C17.644 12.062 17.854 10.922 17.854 9.374C17.854 7.826 17.644 6.686 17.224 5.954C16.804 5.21 16.234 4.838 15.514 4.838ZM29.1374 12.056C29.1374 12.608 29.2394 13.01 29.4434 13.262C29.6474 13.514 30.0014 13.64 30.5054 13.64V14.018C30.1334 13.982 29.7614 13.964 29.3894 13.964C28.6334 13.964 28.0094 14.048 27.5174 14.216V12.092C27.2294 12.836 26.8214 13.382 26.2934 13.73C25.7654 14.078 25.1894 14.252 24.5654 14.252C23.7494 14.252 23.1254 14.024 22.6934 13.568C22.4774 13.328 22.3214 13.022 22.2254 12.65C22.1414 12.278 22.0994 11.798 22.0994 11.21V6.692C22.0994 6.14 21.9974 5.738 21.7934 5.486C21.5894 5.234 21.2354 5.108 20.7314 5.108V4.73C21.1034 4.766 21.4754 4.784 21.8474 4.784C22.6034 4.784 23.2274 4.7 23.7194 4.532V11.606C23.7194 12.062 23.7434 12.434 23.7914 12.722C23.8514 12.998 23.9774 13.226 24.1694 13.406C24.3734 13.586 24.6794 13.676 25.0874 13.676C25.5434 13.676 25.9574 13.532 26.3294 13.244C26.7014 12.956 26.9894 12.566 27.1934 12.074C27.4094 11.57 27.5174 11.018 27.5174 10.418V6.692C27.5174 6.14 27.4154 5.738 27.2114 5.486C27.0074 5.234 26.6534 5.108 26.1494 5.108V4.73C26.5214 4.766 26.8934 4.784 27.2654 4.784C28.0214 4.784 28.6454 4.7 29.1374 4.532V12.056ZM33.4763 0.229999C33.7883 0.229999 34.0583 0.343999 34.2863 0.571999C34.5143 0.799999 34.6283 1.07 34.6283 1.382C34.6283 1.694 34.5143 1.964 34.2863 2.192C34.0583 2.42 33.7883 2.534 33.4763 2.534C33.1643 2.534 32.8943 2.42 32.6663 2.192C32.4383 1.964 32.3243 1.694 32.3243 1.382C32.3243 1.07 32.4383 0.799999 32.6663 0.571999C32.8943 0.343999 33.1643 0.229999 33.4763 0.229999ZM34.4123 12.326C34.4123 12.818 34.5143 13.16 34.7183 13.352C34.9223 13.532 35.2763 13.622 35.7803 13.622V14C34.6763 13.952 33.9503 13.928 33.6023 13.928C33.2543 13.928 32.5283 13.952 31.4243 14V13.622C31.9283 13.622 32.2823 13.532 32.4863 13.352C32.6903 13.16 32.7923 12.818 32.7923 12.326V6.692C32.7923 6.14 32.6903 5.738 32.4863 5.486C32.2823 5.234 31.9283 5.108 31.4243 5.108V4.73C31.8083 4.766 32.1803 4.784 32.5403 4.784C33.2963 4.784 33.9203 4.7 34.4123 4.532V12.326ZM39.9198 4.478C40.3518 4.478 40.7358 4.544 41.0718 4.676C41.4078 4.808 41.6778 4.964 41.8818 5.144C42.0138 5.24 42.1218 5.288 42.2058 5.288C42.4218 5.288 42.5538 5.024 42.6018 4.496H43.0158C42.9678 5.084 42.9438 6.104 42.9438 7.556H42.5298C42.3978 6.764 42.1398 6.11 41.7558 5.594C41.3838 5.078 40.8258 4.82 40.0818 4.82C39.6498 4.82 39.2958 4.946 39.0198 5.198C38.7438 5.438 38.6058 5.774 38.6058 6.206C38.6058 6.626 38.7498 6.98 39.0378 7.268C39.3258 7.544 39.7878 7.88 40.4238 8.276C40.5318 8.336 40.6938 8.438 40.9098 8.582C41.4618 8.942 41.9058 9.26 42.2418 9.536C42.5778 9.812 42.8478 10.13 43.0518 10.49C43.2678 10.85 43.3758 11.264 43.3758 11.732C43.3758 12.524 43.0758 13.142 42.4758 13.586C41.8878 14.03 41.1618 14.252 40.2978 14.252C39.7578 14.252 39.2838 14.168 38.8758 14C38.6118 13.868 38.3658 13.706 38.1378 13.514C38.0898 13.466 38.0358 13.442 37.9758 13.442C37.8918 13.442 37.8138 13.502 37.7418 13.622C37.6818 13.742 37.6338 13.91 37.5978 14.126H37.1838C37.2318 13.442 37.2558 12.242 37.2558 10.526H37.6698C37.8018 11.654 38.0418 12.5 38.3898 13.064C38.7378 13.616 39.3318 13.892 40.1718 13.892C40.5918 13.892 40.9638 13.754 41.2878 13.478C41.6118 13.202 41.7738 12.77 41.7738 12.182C41.7738 11.714 41.6118 11.318 41.2878 10.994C40.9758 10.67 40.4598 10.28 39.7398 9.824C39.1518 9.452 38.6958 9.146 38.3718 8.906C38.0598 8.666 37.7958 8.372 37.5798 8.024C37.3638 7.676 37.2558 7.268 37.2558 6.8C37.2558 6.044 37.5078 5.468 38.0118 5.072C38.5158 4.676 39.1518 4.478 39.9198 4.478ZM58.5429 12.722C58.7709 13.07 58.9629 13.304 59.1189 13.424C59.2749 13.544 59.4849 13.61 59.7489 13.622V14C58.9329 13.952 58.4169 13.928 58.2009 13.928C57.8049 13.928 56.9589 13.952 55.6629 14V13.622C56.1309 13.622 56.4609 13.604 56.6529 13.568C56.8449 13.52 56.9409 13.442 56.9409 13.334C56.9409 13.238 56.8989 13.13 56.8149 13.01L53.7369 8.294L51.7929 11.192C51.3369 11.876 51.1089 12.404 51.1089 12.776C51.1089 13.088 51.2469 13.31 51.5229 13.442C51.7989 13.562 52.1949 13.628 52.7109 13.64V14C52.0269 13.964 51.2169 13.946 50.2809 13.946C49.6209 13.946 49.1109 13.964 48.7509 14V13.64C49.1109 13.592 49.4529 13.43 49.7769 13.154C50.1129 12.878 50.4489 12.488 50.7849 11.984L53.5029 7.934L49.9749 2.534C49.7469 2.186 49.5549 1.952 49.3989 1.832C49.2429 1.712 49.0329 1.646 48.7689 1.634V1.256C49.5849 1.304 50.1009 1.328 50.3169 1.328C51.1209 1.328 51.9669 1.304 52.8549 1.256V1.634C52.4229 1.634 52.1109 1.67 51.9189 1.742C51.7389 1.802 51.6489 1.898 51.6489 2.03C51.6489 2.102 51.7029 2.234 51.8109 2.426L54.6189 6.71L56.3829 4.064C56.8989 3.308 57.1569 2.732 57.1569 2.336C57.1569 2.084 57.0429 1.904 56.8149 1.796C56.5869 1.688 56.2389 1.628 55.7709 1.616V1.256C56.4549 1.292 57.1449 1.31 57.8409 1.31C58.5009 1.31 59.0109 1.292 59.3709 1.256V1.616C59.0109 1.664 58.6629 1.826 58.3269 2.102C58.0029 2.378 57.6729 2.768 57.3369 3.272L54.8169 7.034L58.5429 12.722ZM69.9871 1.31C70.5271 1.31 70.9771 1.292 71.3371 1.256V1.616C70.7371 1.76 70.2631 2.282 69.9151 3.182L65.6851 14.09H65.5411H65.3971L61.0051 2.768C60.7171 2.024 60.3031 1.64 59.7631 1.616V1.256C60.2431 1.292 60.8851 1.31 61.6891 1.31C62.7211 1.31 63.4891 1.292 63.9931 1.256V1.616C63.5371 1.64 63.2071 1.7 63.0031 1.796C62.8111 1.88 62.7151 2.042 62.7151 2.282C62.7151 2.486 62.7871 2.768 62.9311 3.128L66.1891 11.786L69.1231 4.172C69.3631 3.524 69.4831 3.032 69.4831 2.696C69.4831 2.324 69.3511 2.054 69.0871 1.886C68.8351 1.718 68.4451 1.628 67.9171 1.616V1.256C68.6011 1.292 69.2911 1.31 69.9871 1.31ZM76.555 1.616C76.123 1.64 75.805 1.688 75.601 1.76C75.409 1.832 75.277 1.97 75.205 2.174C75.133 2.378 75.097 2.708 75.097 3.164V12.092C75.097 12.548 75.133 12.878 75.205 13.082C75.277 13.286 75.409 13.424 75.601 13.496C75.805 13.568 76.123 13.616 76.555 13.64V14C76.003 13.964 75.241 13.946 74.269 13.946C73.237 13.946 72.469 13.964 71.965 14V13.64C72.397 13.616 72.709 13.568 72.901 13.496C73.105 13.424 73.243 13.286 73.315 13.082C73.387 12.878 73.423 12.548 73.423 12.092V3.164C73.423 2.708 73.387 2.378 73.315 2.174C73.243 1.97 73.105 1.832 72.901 1.76C72.709 1.688 72.397 1.64 71.965 1.616V1.256C72.469 1.292 73.237 1.31 74.269 1.31C75.229 1.31 75.991 1.292 76.555 1.256V1.616ZM91.3818 12.488C91.6698 13.232 92.0838 13.616 92.6238 13.64V14C92.1438 13.964 91.5018 13.946 90.6978 13.946C89.6658 13.946 88.8978 13.964 88.3938 14V13.64C88.8498 13.616 89.1738 13.562 89.3658 13.478C89.5698 13.382 89.6718 13.214 89.6718 12.974C89.6718 12.77 89.5998 12.488 89.4558 12.128L88.3578 9.176H84.0018L83.2638 11.084C83.0238 11.732 82.9038 12.224 82.9038 12.56C82.9038 12.932 83.0298 13.202 83.2818 13.37C83.5458 13.538 83.9418 13.628 84.4698 13.64V14C83.7858 13.964 83.0958 13.946 82.3998 13.946C81.8598 13.946 81.4098 13.964 81.0498 14V13.64C81.6498 13.496 82.1238 12.974 82.4718 12.074L86.7018 1.166H86.9898L91.3818 12.488ZM88.2138 8.816L86.1978 3.434L84.1458 8.816H88.2138ZM102.273 1.256C102.189 2.108 102.147 2.876 102.147 3.56C102.147 4.16 102.165 4.652 102.201 5.036H101.787C101.691 4.112 101.571 3.428 101.427 2.984C101.283 2.528 101.031 2.198 100.671 1.994C100.311 1.778 99.7592 1.67 99.0152 1.67H98.0432V11.912C98.0432 12.416 98.0912 12.782 98.1872 13.01C98.2832 13.238 98.4512 13.394 98.6912 13.478C98.9312 13.562 99.3212 13.616 99.8612 13.64V14C99.2372 13.964 98.3552 13.946 97.2152 13.946C96.0152 13.946 95.1272 13.964 94.5512 14V13.64C95.0912 13.616 95.4812 13.562 95.7212 13.478C95.9612 13.394 96.1292 13.238 96.2252 13.01C96.3212 12.782 96.3692 12.416 96.3692 11.912V1.67H95.3972C94.6532 1.67 94.1012 1.778 93.7412 1.994C93.3812 2.198 93.1292 2.528 92.9852 2.984C92.8412 3.428 92.7212 4.112 92.6252 5.036H92.2112C92.2472 4.652 92.2652 4.16 92.2652 3.56C92.2652 2.876 92.2232 2.108 92.1392 1.256C93.1352 1.292 94.8272 1.31 97.2152 1.31C99.5912 1.31 101.277 1.292 102.273 1.256ZM115.667 1.616C115.235 1.64 114.917 1.688 114.713 1.76C114.521 1.832 114.389 1.97 114.317 2.174C114.245 2.378 114.209 2.708 114.209 3.164V12.092C114.209 12.548 114.245 12.878 114.317 13.082C114.389 13.286 114.521 13.424 114.713 13.496C114.917 13.568 115.235 13.616 115.667 13.64V14C115.163 13.964 114.395 13.946 113.363 13.946C112.391 13.946 111.629 13.964 111.077 14V13.64C111.509 13.616 111.821 13.568 112.013 13.496C112.217 13.424 112.355 13.286 112.427 13.082C112.499 12.878 112.535 12.548 112.535 12.092V7.772H106.685V12.092C106.685 12.548 106.721 12.878 106.793 13.082C106.865 13.286 106.997 13.424 107.189 13.496C107.393 13.568 107.711 13.616 108.143 13.64V14C107.591 13.964 106.829 13.946 105.857 13.946C104.825 13.946 104.057 13.964 103.553 14V13.64C103.985 13.616 104.297 13.568 104.489 13.496C104.693 13.424 104.831 13.286 104.903 13.082C104.975 12.878 105.011 12.548 105.011 12.092V3.164C105.011 2.708 104.975 2.378 104.903 2.174C104.831 1.97 104.693 1.832 104.489 1.76C104.297 1.688 103.985 1.64 103.553 1.616V1.256C104.057 1.292 104.825 1.31 105.857 1.31C106.817 1.31 107.579 1.292 108.143 1.256V1.616C107.711 1.64 107.393 1.688 107.189 1.76C106.997 1.832 106.865 1.97 106.793 2.174C106.721 2.378 106.685 2.708 106.685 3.164V7.412H112.535V3.164C112.535 2.708 112.499 2.378 112.427 2.174C112.355 1.97 112.217 1.832 112.013 1.76C111.821 1.688 111.509 1.64 111.077 1.616V1.256C111.629 1.292 112.391 1.31 113.363 1.31C114.395 1.31 115.163 1.292 115.667 1.256V1.616ZM122.957 1.004C124.097 1.004 125.093 1.262 125.945 1.778C126.809 2.294 127.475 3.044 127.943 4.028C128.423 5 128.663 6.164 128.663 7.52C128.663 8.84 128.417 10.01 127.925 11.03C127.445 12.05 126.767 12.842 125.891 13.406C125.027 13.97 124.043 14.252 122.939 14.252C121.799 14.252 120.797 13.994 119.933 13.478C119.081 12.962 118.415 12.218 117.935 11.246C117.467 10.262 117.233 9.092 117.233 7.736C117.233 6.416 117.473 5.246 117.953 4.226C118.445 3.206 119.123 2.414 119.987 1.85C120.863 1.286 121.853 1.004 122.957 1.004ZM122.885 1.328C122.117 1.328 121.439 1.598 120.851 2.138C120.275 2.666 119.825 3.41 119.501 4.37C119.189 5.33 119.033 6.428 119.033 7.664C119.033 8.912 119.207 10.01 119.555 10.958C119.915 11.906 120.395 12.638 120.995 13.154C121.595 13.67 122.267 13.928 123.011 13.928C123.779 13.928 124.451 13.664 125.027 13.136C125.615 12.596 126.065 11.846 126.377 10.886C126.701 9.926 126.863 8.828 126.863 7.592C126.863 6.344 126.683 5.246 126.323 4.298C125.975 3.35 125.501 2.618 124.901 2.102C124.301 1.586 123.629 1.328 122.885 1.328ZM134.229 1.058C134.757 1.058 135.171 1.118 135.471 1.238C135.783 1.346 136.101 1.508 136.425 1.724C136.689 1.892 136.893 1.976 137.037 1.976C137.145 1.976 137.229 1.916 137.289 1.796C137.349 1.664 137.397 1.46 137.433 1.184H137.847C137.787 1.88 137.757 3.104 137.757 4.856H137.343C137.271 3.884 136.989 3.068 136.497 2.408C136.017 1.736 135.315 1.4 134.391 1.4C133.743 1.4 133.215 1.598 132.807 1.994C132.399 2.378 132.195 2.876 132.195 3.488C132.195 3.944 132.297 4.34 132.501 4.676C132.717 5.012 132.987 5.3 133.311 5.54C133.635 5.78 134.097 6.086 134.697 6.458L135.219 6.782C135.975 7.25 136.569 7.664 137.001 8.024C137.445 8.372 137.799 8.774 138.063 9.23C138.327 9.686 138.459 10.22 138.459 10.832C138.459 11.924 138.099 12.77 137.379 13.37C136.659 13.958 135.747 14.252 134.643 14.252C134.067 14.252 133.593 14.192 133.221 14.072C132.861 13.952 132.513 13.79 132.177 13.586C131.913 13.418 131.709 13.334 131.565 13.334C131.457 13.334 131.373 13.4 131.313 13.532C131.253 13.652 131.205 13.85 131.169 14.126H130.755C130.803 13.466 130.827 12.026 130.827 9.806H131.241C131.325 11.018 131.625 12.002 132.141 12.758C132.657 13.514 133.449 13.892 134.517 13.892C135.165 13.892 135.717 13.694 136.173 13.298C136.629 12.89 136.857 12.29 136.857 11.498C136.857 10.826 136.629 10.256 136.173 9.788C135.729 9.32 135.021 8.792 134.049 8.204C133.341 7.772 132.765 7.388 132.321 7.052C131.889 6.716 131.535 6.314 131.259 5.846C130.983 5.366 130.845 4.808 130.845 4.172C130.845 3.164 131.169 2.396 131.817 1.868C132.465 1.328 133.269 1.058 134.229 1.058Z" fill="white"/>
</svg>
